<?xml version="1.0" standalone="no"?>
<!DOCTYPE svg PUBLIC "-//W3C//DTD SVG 20010904//EN"
 "http://www.w3.org/TR/2001/REC-SVG-20010904/DTD/svg10.dtd">
<svg version="1.0" xmlns="http://www.w3.org/2000/svg"
 width="512.000000pt" height="512.000000pt" viewBox="0 0 512.000000 512.000000"
 preserveAspectRatio="xMidYMid meet">

<g transform="translate(0.000000,512.000000) scale(0.100000,-0.100000)"
fill="#000000" stroke="none">
<path d="M1698 5095 c-187 -51 -324 -129 -454 -259 -127 -127 -206 -264 -257
-445 -20 -73 -21 -100 -25 -632 l-3 -555 -64 -11 c-94 -16 -168 -54 -234 -120
-64 -65 -104 -139 -120 -227 -14 -78 -15 -2290 -1 -2391 13 -86 71 -211 129
-277 51 -58 136 -115 221 -148 l65 -25 1600 0 1600 0 68 23 c84 29 174 89 227
150 60 69 118 193 130 277 14 101 13 2313 -1 2391 -33 180 -171 316 -352 347
l-66 11 -4 555 c-4 604 -3 596 -63 750 -49 122 -114 220 -214 321 -142 143
-265 213 -467 266 l-93 24 -768 -1 -767 -1 -87 -23z m1500 -695 l-3 -500 -28
-27 -27 -28 -580 0 -580 0 -27 28 -28 27 -3 500 -3 500 641 0 641 0 -3 -500z
m-1488 -19 c0 -431 2 -495 17 -541 21 -65 89 -142 157 -178 l51 -27 625 0 625
0 50 27 c60 32 114 87 146 148 l24 45 3 508 c2 441 5 507 18 507 27 0 145 -59
207 -104 143 -101 242 -246 293 -426 16 -59 18 -119 21 -630 l2 -565 -51 -40
c-64 -49 -112 -116 -141 -192 -20 -54 -22 -80 -25 -365 l-4 -308 -1169 0
-1169 0 0 273 c0 293 -7 361 -47 444 -27 58 -106 151 -148 173 l-26 14 3 566
c4 509 6 571 22 630 64 228 212 404 417 500 110 50 99 100 99 -459z m-657
-1417 c42 -21 75 -52 95 -89 15 -27 18 -92 22 -562 5 -520 5 -532 26 -560 11
-15 36 -33 55 -40 49 -17 2569 -17 2618 0 19 7 44 25 55 40 21 28 21 40 26
560 5 577 4 561 62 613 115 106 307 59 348 -84 8 -26 10 -398 8 -1217 l-3
-1180 -24 -49 c-33 -66 -91 -122 -160 -155 l-56 -26 -1565 0 -1565 0 -57 27
c-75 35 -141 104 -167 174 -21 54 -21 68 -21 1230 0 1038 2 1179 15 1212 47
110 181 160 288 106z m2677 -989 l0 -55 -1170 0 -1170 0 0 55 0 55 1170 0
1170 0 0 -55z"/>
<path d="M1170 535 l0 -105 1335 0 1335 0 0 105 0 105 -1335 0 -1335 0 0 -105z"/>
</g>
</svg>
