<?xml version="1.0" standalone="no"?>
<!DOCTYPE svg PUBLIC "-//W3C//DTD SVG 20010904//EN"
 "http://www.w3.org/TR/2001/REC-SVG-20010904/DTD/svg10.dtd">
<svg version="1.0" xmlns="http://www.w3.org/2000/svg"
 width="512.000000pt" height="512.000000pt" viewBox="0 0 512.000000 512.000000"
 preserveAspectRatio="xMidYMid meet">

<g transform="translate(0.000000,512.000000) scale(0.100000,-0.100000)"
fill="#000000" stroke="none">
<path d="M1255 4839 c-185 -27 -357 -190 -396 -376 -15 -75 -7 -194 19 -265
40 -112 140 -225 243 -273 35 -17 36 -17 83 14 92 58 217 64 312 16 l47 -24
41 28 c154 106 238 297 208 474 -35 209 -203 377 -408 407 -38 5 -73 9 -79 9
-5 -1 -37 -5 -70 -10z"/>
<path d="M4015 4839 c-248 -38 -451 -182 -565 -401 -58 -111 -81 -209 -81
-343 0 -182 55 -339 170 -481 154 -190 428 -297 670 -264 167 23 316 95 431
210 84 83 136 163 177 271 135 360 -21 761 -365 934 -129 64 -306 95 -437 74z
m525 -429 c11 -11 20 -25 20 -30 0 -30 -52 -88 -307 -342 -236 -235 -283 -278
-308 -278 -23 0 -50 22 -146 118 -64 64 -120 126 -123 138 -8 27 28 74 56 74
13 0 57 -35 112 -90 51 -49 96 -90 102 -90 5 0 126 117 269 260 272 272 284
281 325 240z"/>
<path d="M1300 3855 c-43 -20 -87 -60 -107 -99 -37 -72 -31 -96 171 -643 l189
-513 214 0 c168 0 214 3 210 13 -2 6 -98 266 -212 577 -212 578 -229 615 -293
653 -44 26 -128 31 -172 12z"/>
<path d="M335 3618 c-29 -17 -44 -40 -45 -69 0 -38 927 -2550 951 -2574 19
-20 33 -20 1245 -20 l1226 0 24 28 c13 15 24 39 24 52 0 29 -271 575 -295 595
-15 12 -75 16 -351 18 -252 2 -335 6 -343 16 -6 7 -71 176 -145 377 -158 428
-151 414 -183 428 -16 8 -169 11 -487 11 -354 0 -466 3 -479 13 -10 7 -102
244 -212 542 -107 292 -200 540 -206 551 -6 12 -22 27 -36 33 -34 16 -660 15
-688 -1z m1987 -1510 c27 -22 30 -53 7 -81 l-20 -27 -218 0 c-180 0 -220 3
-239 16 -26 18 -29 60 -5 86 15 16 36 18 238 18 162 0 225 -3 237 -12z"/>
<path d="M2641 2348 c27 -72 49 -133 49 -135 0 -1 106 -3 235 -3 l234 0 36 31
c80 71 60 191 -38 228 -18 7 -131 11 -297 11 l-268 0 49 -132z"/>
<path d="M2742 2078 c3 -7 28 -79 58 -160 l53 -146 306 -4 c295 -3 308 -4 348
-25 23 -13 53 -37 67 -55 13 -18 86 -157 161 -308 143 -287 159 -335 137 -400
-11 -29 -2 -49 139 -333 83 -166 159 -310 168 -321 43 -49 142 -70 208 -45 68
25 116 97 116 174 0 46 -32 113 -381 810 -209 418 -391 770 -404 783 -14 12
-40 27 -59 32 -20 6 -219 10 -478 10 -350 0 -442 -3 -439 -12z"/>
<path d="M1440 560 l0 -270 975 0 975 0 0 270 0 270 -975 0 -975 0 0 -270z"/>
</g>
</svg>
