<?xml version="1.0" standalone="no"?>
<!DOCTYPE svg PUBLIC "-//W3C//DTD SVG 20010904//EN"
 "http://www.w3.org/TR/2001/REC-SVG-20010904/DTD/svg10.dtd">
<svg version="1.0" xmlns="http://www.w3.org/2000/svg"
 width="512.000000pt" height="512.000000pt" viewBox="0 0 512.000000 512.000000"
 preserveAspectRatio="xMidYMid meet">

<g transform="translate(0.000000,512.000000) scale(0.100000,-0.100000)"
fill="#000000" stroke="none">
<path d="M3507 4666 c-114 -47 -175 -105 -222 -209 -14 -29 -28 -81 -31 -115
l-7 -62 482 0 481 0 0 34 c0 57 -38 161 -78 214 -48 65 -87 96 -159 130 -55
26 -66 27 -233 30 -166 2 -178 1 -233 -22z"/>
<path d="M1064 4187 c-87 -42 -154 -144 -154 -235 0 -39 421 -1987 446 -2067
62 -192 209 -356 400 -446 161 -76 111 -73 1054 -76 526 -3 869 0 908 6 145
23 273 118 335 248 30 64 32 74 32 183 0 111 -1 118 -34 185 -44 89 -121 167
-203 205 -64 30 -169 51 -223 44 -16 -2 -316 -38 -665 -80 -697 -84 -680 -84
-763 -27 -56 39 -81 90 -127 263 -152 566 -322 1045 -495 1395 -118 237 -192
349 -259 390 -42 25 -61 30 -125 33 -63 2 -84 -1 -127 -21z"/>
<path d="M3252 3933 l3 -198 32 -67 c39 -83 108 -154 188 -194 l60 -29 195 0
c194 0 195 0 253 28 69 34 147 107 177 168 41 80 50 134 50 317 l0 172 -481 0
-481 0 4 -197z"/>
<path d="M2612 3075 c-299 -46 -546 -86 -549 -89 -3 -2 20 -87 50 -188 31
-101 67 -223 81 -271 13 -49 26 -90 29 -93 5 -6 993 142 1047 156 89 24 175
110 200 200 48 172 -79 351 -257 365 -41 2 -223 -22 -601 -80z"/>
<path d="M1551 965 c-72 -182 -133 -345 -137 -362 -9 -44 11 -94 52 -134 l35
-34 1102 -3 c1086 -2 1102 -2 1135 18 52 32 74 76 69 140 -3 45 -28 106 -137
338 l-133 282 -766 0 c-481 0 -790 4 -831 11 -36 5 -108 25 -161 43 l-96 32
-132 -331z"/>
</g>
</svg>
