<?xml version="1.0" standalone="no"?>
<!DOCTYPE svg PUBLIC "-//W3C//DTD SVG 20010904//EN"
 "http://www.w3.org/TR/2001/REC-SVG-20010904/DTD/svg10.dtd">
<svg version="1.0" xmlns="http://www.w3.org/2000/svg"
 width="512.000000pt" height="512.000000pt" viewBox="0 0 512.000000 512.000000"
 preserveAspectRatio="xMidYMid meet">

<g transform="translate(0.000000,512.000000) scale(0.100000,-0.100000)"
fill="#000000" stroke="none">
<path d="M3947 5105 c-394 -75 -697 -359 -799 -750 -19 -71 -22 -116 -25 -391
-5 -333 3 -423 48 -557 67 -200 212 -394 378 -506 92 -63 234 -127 337 -153
119 -30 331 -32 449 -4 242 56 472 210 605 405 60 90 126 232 151 331 20 76
23 117 26 396 5 333 -3 423 -48 557 -109 325 -380 575 -714 658 -107 27 -304
34 -408 14z m298 -400 c114 -24 209 -77 295 -164 67 -68 140 -177 140 -210 0
-8 -156 -11 -560 -11 -404 0 -560 3 -560 11 0 33 73 142 140 210 147 148 341
207 545 164z m475 -918 c0 -228 -46 -353 -180 -487 -86 -87 -162 -131 -276
-160 -98 -25 -190 -25 -288 0 -113 29 -190 73 -276 160 -134 133 -180 258
-180 487 l0 133 600 0 600 0 0 -133z"/>
<path d="M452 4780 c-40 -11 -101 -34 -135 -52 -81 -42 -203 -164 -245 -245
-68 -129 -88 -291 -54 -423 10 -36 326 -784 702 -1663 l685 -1597 232 0 c128
0 233 -2 233 -5 0 -3 -88 -181 -195 -395 -107 -214 -195 -392 -195 -395 0 -3
594 -5 1320 -5 726 0 1320 2 1320 5 0 3 -88 181 -195 395 -107 214 -195 392
-195 395 0 3 31 5 68 5 87 0 205 30 285 72 81 42 203 164 245 245 70 133 88
286 52 427 -29 113 -73 190 -160 276 -86 87 -163 131 -276 160 -74 19 -113 20
-913 20 l-836 0 -83 193 c-45 105 -82 195 -82 200 0 4 263 7 585 7 l585 0 0
200 0 200 -674 0 -674 0 -361 843 c-199 464 -377 865 -395 893 -139 206 -405
306 -644 244z m253 -410 c19 -12 43 -33 54 -48 10 -15 278 -633 596 -1374
l577 -1348 966 -2 967 -3 38 -24 c21 -13 50 -42 65 -64 22 -34 27 -52 27 -106
0 -79 -25 -128 -88 -169 l-41 -27 -1100 0 -1100 0 -628 1465 c-346 806 -631
1483 -634 1505 -13 87 49 190 128 214 49 15 133 6 173 -19z m2668 -3765 c53
-107 97 -197 97 -200 0 -3 -301 -5 -670 -5 -368 0 -670 2 -670 5 0 3 44 93 97
200 l98 195 475 0 475 0 98 -195z"/>
</g>
</svg>
