<?xml version="1.0" standalone="no"?>
<!DOCTYPE svg PUBLIC "-//W3C//DTD SVG 20010904//EN"
 "http://www.w3.org/TR/2001/REC-SVG-20010904/DTD/svg10.dtd">
<svg version="1.0" xmlns="http://www.w3.org/2000/svg"
 width="512.000000pt" height="513.000000pt" viewBox="0 0 512.000000 513.000000"
 preserveAspectRatio="xMidYMid meet">

<g transform="translate(0.000000,513.000000) scale(0.100000,-0.100000)"
fill="#000000" stroke="none">
<path d="M3585 5116 c-229 -36 -441 -143 -604 -305 -247 -245 -368 -594 -321
-926 23 -159 82 -324 160 -446 l30 -46 -61 -203 c-63 -214 -68 -253 -33 -258
11 -2 111 31 222 72 l202 75 93 -44 c561 -269 1218 -35 1482 528 167 357 128
782 -102 1105 -102 144 -281 291 -436 361 -197 89 -422 119 -632 87z m-283
-537 c106 -23 88 -10 553 -404 182 -154 338 -286 346 -293 13 -10 32 -9 100 4
46 9 99 13 118 10 35 -5 91 -50 91 -73 0 -14 -132 -106 -193 -134 -47 -21
-113 -24 -168 -9 -20 6 -124 73 -230 150 l-194 139 -6 -217 c-4 -119 -7 -243
-8 -274 -1 -72 -18 -76 -83 -18 -55 47 -51 34 -114 411 l-48 286 -179 129
c-99 71 -188 140 -198 153 -27 33 -24 82 5 110 42 40 113 50 208 30z m851
-214 c203 -22 220 -26 257 -52 22 -15 40 -35 40 -45 0 -21 -31 -26 -251 -34
-201 -7 -191 -10 -292 79 -54 47 -65 62 -56 73 7 9 24 12 48 9 20 -3 134 -16
254 -30z"/>
<path d="M555 4204 c-141 -17 -196 -28 -215 -42 -36 -27 -62 -81 -56 -119 3
-18 131 -423 286 -899 155 -476 291 -907 303 -957 19 -87 20 -128 24 -812 2
-396 5 -734 8 -751 8 -47 61 -119 111 -153 29 -19 68 -33 112 -41 48 -8 464
-10 1452 -8 1286 3 1387 4 1416 20 43 24 82 72 89 111 6 32 -86 651 -107 717
-16 53 -52 95 -100 117 -24 11 -121 37 -216 56 -94 20 -185 43 -201 52 -57 29
-93 92 -252 435 -88 190 -169 363 -179 386 -32 65 -84 118 -152 155 l-63 34
-560 5 c-554 5 -560 5 -601 27 -64 34 -88 71 -148 225 -30 79 -159 411 -286
738 -127 327 -240 614 -251 638 -14 28 -35 51 -63 67 -53 31 -92 31 -351 -1z"/>
<path d="M1112 4164 c6 -20 377 -977 381 -980 1 -1 37 11 79 27 49 19 86 41
102 60 50 59 48 65 -92 441 -76 203 -140 362 -156 383 -44 57 -94 77 -214 83
-100 5 -105 4 -100 -14z"/>
<path d="M3313 2035 l71 -155 198 0 c250 0 238 -8 238 153 0 170 26 157 -305
157 l-273 0 71 -155z"/>
<path d="M1160 180 c0 -107 1 -110 29 -142 l29 -33 1296 -3 c1439 -3 1342 -7
1372 63 9 22 14 70 14 130 l0 95 -1370 0 -1370 0 0 -110z"/>
</g>
</svg>
